# xmcd CD database file
#
# Track frame offsets:
#	150
#	20152
#	39910
#	67287
#	80960
#	103667
#	120210
#	145012
#	164697
#	184285
#	204760
#	221085
#
# Disc length: 3253 seconds
#
# Revision: 0
# Processed by: cddbd v1.5PL3 Copyright (c) Steve Scherf et al.
# Submitted via: CDex 1.50beta10
#
DISCID=b10cb30c
DTITLE=Blue Chamber Featuring Big John Dickerson - Arms Of The Blues
DYEAR=1999
DGENRE=Blues
TTITLE0=Good Man Blues
TTITLE1=Make Time Count
TTITLE2=Reap What You Sow
TTITLE3=How Long
TTITLE4=Tell Me
TTITLE5=When The Sun Goes Down
TTITLE6=Arms Of The Blues
TTITLE7=Low Down Dirty Shame
TTITLE8=Call It Quits
TTITLE9=When I'm Gone
TTITLE10=You Upset Me Baby
TTITLE11=Black Coffee
EXTD=YEAR: 1999
EXTT0=
EXTT1=
EXTT2=
EXTT3=
EXTT4=
EXTT5=
EXTT6=
EXTT7=
EXTT8=
EXTT9=
EXTT10=
EXTT11=
PLAYORDER=
